<svg xmlns="http://www.w3.org/2000/svg" viewBox="0 0 1442.79 1764.04"><defs><style>.cls-1,.cls-3,.cls-6,.cls-9{fill:none;stroke-miterlimit:3.86;}.cls-1,.cls-3{stroke:#fbed24;}.cls-1{stroke-width:98.29px;}.cls-2{fill:#39ab49;}.cls-10,.cls-11,.cls-12,.cls-13,.cls-2,.cls-4,.cls-5,.cls-7{fill-rule:evenodd;}.cls-3{stroke-width:29.55px;}.cls-4{fill:#fbed24;}.cls-5{fill:#2b286c;}.cls-6{stroke:#fff;stroke-width:4.92px;}.cls-7,.cls-8{fill:#fff;}.cls-9{stroke:#231f20;stroke-width:13.96px;}.cls-10{fill:#432971;}.cls-11{fill:#231f20;}.cls-12{fill:#383431;}.cls-13{fill:#542a74;}</style></defs><title>Logo Kabupaten Barru</title><g id="Layer_2" data-name="Layer 2"><g id="Layer_1-2" data-name="Layer 1"><path class="cls-1" d="M721.4,82.57s-98.5,133-347.21,125.58c-101,76.34-118.2,118.2-325,150.21V821.3s-2.47,588.53,672.25,889c674.71-300.42,672.24-888.95,672.24-888.95V358.36c-206.84-32-224.08-73.87-325-150.21C819.89,215.54,721.4,82.57,721.4,82.57Z"/><path class="cls-2" d="M721.4,82.57s-98.5,133-347.21,125.58c-101,76.34-118.2,118.2-325,150.21V821.3s-2.47,588.53,672.25,889c674.71-300.42,672.24-888.95,672.24-888.95V358.36c-206.84-32-224.08-73.87-325-150.21C819.89,215.54,721.4,82.57,721.4,82.57Z"/><path class="cls-3" d="M721.4,82.57s-98.5,133-347.21,125.58c-101,76.34-118.2,118.2-325,150.21V821.3s-2.47,588.53,672.25,889c674.71-300.42,672.24-888.95,672.24-888.95V358.36c-206.84-32-224.08-73.87-325-150.21C819.89,215.54,721.4,82.57,721.4,82.57Z"/><path class="cls-4" d="M520.71,280.8S485,307.88,470.23,319s-71.42,38.17-104.66,118.2c-17.24,34.47-33.24,64-33.24,64s44.32-39.39,77.57-61.56,55.4-38.16,59.09-28.31,4.93,25.85-12.31,52.94S419.75,513.5,421,532c-6.16-35.7,4.92-66.48,4.92-66.48s-91.11,57.87-105.88,64c-14.78,25.86-23.4,80-13.55,134.21,46.79-36.94,96-87.42,96-87.42l-1.23,117-16-66.49L311.4,688.33s4.92,46.79,52.94,112c12.31-65.25,30.78-98.5,50.48-98.5s16.62,98.5,12.31,113.89c-11.69-17.85-21.54-54.17-20.93-70.79-11.69,12.31-20.93,78.79-20.93,78.79s36.32,38.17,59.72,55.41c9.23-42.48,16.62-79.41,16.62-79.41l7.38,88S623.52,970.9,717.09,990c98.5-25.24,171.75-54.79,234.54-96-6.77-16-6.77-16.62-6.77-16.62s-54.17-24.62-9.23-83.1C954.1,805.91,983,829.31,964,873.63c-1.24,8.62-1.85,14.16-1.85,14.16l34.48-27.7-10.47-26.48s-25.86-6.63-25.86-42.47c0-20.93,19.09-40,19.09-40s30.16,22.78,32,44.33-8.62,35.7-8.62,35.7l3.7,20.32s33.85-25.86,43.09-44.94c-4.31-9.85-10.47-20.93-10.47-20.93s-31.39-16-34.47-32.63,0-35.09,13.54-51.71c14.77,9.23,29.55,12.31,36.94,37.55s-2.47,40.63-2.47,40.63l7.39,19.7s28.94-37.55,33.86-54.17c-8.62-14.78-14.77-22.17-14.77-22.17s-30.17-.61-36.94-28.31,4.31-52.33,4.31-52.33,33.86,13.54,43.71,34.47,3.69,37.56,3.69,37.56l6.77,19.7s22.16-49.25,24.63-78.19c-10.47-4.31-16.62-7.38-16.62-7.38s-27.09,13.54-44.33-4.93-16.62-43.71-16.62-43.71,29.55-4.92,49.87,5.54c16,9.85,16,19.09,16.62,29.55a49.41,49.41,0,0,0,12.93,9.85s.61-36.32,2.46-44.94c-6.78-6.15-28.32-8.62-32-13.54-4.93,5.54-25.86,11.7-40.63-3.08S1036,537.51,1036,537.51s39.39-9.85,65.86,10.46c16.63,14.16,12.93,28.93,12.93,28.93L1127.7,588l-3.08-45.56-39.4-17.24s-30.78,15.39-48.63-1.84S1013.81,471,1013.81,471s35.71-9.85,62.8,4.92c25.85,14.78,20.31,36.94,20.31,36.94l24,14.78s-15.39-50.48-19.7-60.33c-11.7-4.93-40.63-12.93-40.63-12.93s-32,16-50.48,3.08-22.16-48-22.16-48,32.62-16.62,59.1-3.08c19.08,10.47,24.62,38.17,24.62,38.17l24,9.85s-29.55-43.71-47.4-56.64c-14.78-2.46-35.09-4.31-35.09-4.31s-28.94,17.24-48,6.16-20.32-29.55-32-45.56c20.31-11.08,72.64-17.85,91.72,27.09a71.81,71.81,0,0,1,14.16,3.69l-62.79-52.32s-40,2.46-52.33-11.08-10.46-45.56-4.31-56.64c25.24.62,59.1,6.77,65.87,57.87,11.7,16,46.79,41.86,56,52.94-4.3-18.47-4.3-25.24-4.3-25.24s-37.56-2.46-45.56-31.4,2.46-48,2.46-48,40.63,16.62,51.1,35.7,2.46,44.33,2.46,44.33l4.31,33.85a110.88,110.88,0,0,1,28.93,36.32c2.46-8.61.62-20.31.62-20.31s-33.24-11.08-26.47-48,25.85-44.94,25.85-44.94,33.86,29.55,32,55.41c-1.23,18.47-22.16,36.32-22.16,36.32L1092,431s18.47,25.86,22.78,40c6.16-14.78,4.31-19.7,4.31-19.7s-24-24.62-16-48.63,36.33-42.48,36.33-42.48,29.55,32,19.7,62.79c-7.39,17.85-24.63,31.4-24.63,31.4l-8,40s3.69,22.16,7.38,31.4c5.55-2.46,8.62-14.78,8.62-14.78s-11.69-27.7-.61-48.63,50.48-29.55,50.48-29.55,17.24,40.63-3.69,71.41a64.52,64.52,0,0,1-35.71,19.7l-15.39,20.32,4.31,34.47,20.93-12.31s-4.92-38.17,20.31-51.1,52.33-9.85,52.33-9.85-3.08,46.79-30.78,62.8c-27.7,13.54-41.25,9.85-41.25,9.85l-20.31,12.92-.62,40,17.24-6.77s9.24-38.79,36.32-48c23.4-5.54,45.56,3.69,45.56,3.69s-5.54,31.4-22.78,43.1-32.63,14.77-53.56,12.31c-15.39,6.77-24,10.46-24,10.46s-9.23,43.71-12.92,51.1c20.31-4.93,22.16-9.85,22.16-9.85s5.54-38.78,38.17-42.48,43.09,4.31,43.09,4.31-15.39,41.86-31.4,49.25-30.78,11.7-46.79,4.31c-16.61-.62-30.16,9.85-30.16,9.85s-17.24,38.17-19.7,44.94c17.85-1.85,19.08-3.08,19.08-3.08s11.7-30.16,32-36.94,49.86,1.24,59.71,11.09c-14.77,17.23-36.93,43.09-51.71,48.63s-40-11.7-40-11.7-12.31,8.62-26.46,5.54c-9.24,18.47-31.4,48.64-31.4,48.64l28.31,3.07s9.24-25.24,34.48-36.93,56.64,16.62,56.64,16.62-22.78,36.32-48,40-41.25-9.23-41.25-9.23l-39.4-.62s-27.08,32-36.93,37.56c18.47-.62,28.32-1.85,28.32-1.85s19.7-35.09,52.94-20.32,36.94,28.94,36.94,28.94-24,22.78-59.72,18.47-35.09-14.78-35.09-14.78h-33.24s-16,19.09-32.63,22.16c22.16,2.47,25.24,1.85,25.24,1.85s26.47-20.93,46.79-5.54,33.24,43.71,33.24,43.71-44.32,14.77-64,3.08-19.7-22.78-19.7-22.78l-25.25-12.31S825.44,987.52,770,1003.52c39.4,7.39,132.35,19.09,157,18.47,0,17.85-4.31,44.33-4.31,44.33s-164.37-26.48-209.31-46.17c-35.7,14.15-166.83,40-199.45,38.78a235,235,0,0,0-4.93-46.79s123.74-3.69,149.59-9.85c-43.7-11.08-164.36-70.79-187.76-86.8C429.6,908.72,349,897.64,349,897.64s49.25,43.09,59.71,70.79C389,954.27,357,931.5,333.56,918s-38.17-26.47-33.86-45.55,49.25-4.31,80,5.54,56,19.08,56,19.08-64-49.25-90.49-81.87-30.78-35.71-42.48-47.41-42.48-26.47-57.25-33.24c1.23,16,8.62,50.48,19.7,80s9.23,35.09,9.23,35.09S254.15,812.07,240,793s-46.79-63.4-27.09-81.87c18.47-12.93,69,1.84,90.5,35.09-19.09-46.79-26.48-89.27-25.25-113.27-14.77-14.16-43.7-45.56-56-52.95-2.47,29.55-3.08,70.8-22.17,88.65,6.16-35.7-4.31-76.34,0-95.42s0-47.4,24.63-41.86,54.17,78.8,54.17,78.8S291.08,501.8,333,450.09c-3.08-25.24-15.4-52.33-15.4-52.33s-73.25,65.26-93,75.72c10.46-31.39,33.86-62.79,48.63-88s17.24-39.4,17.24-39.4,59.1-14.77,49.86,68.33c21.55-65.25,41.87-81.53,72-103.42C450.53,283.26,520.71,280.8,520.71,280.8Z"/><path class="cls-4" d="M428.36,1444.92v-83.73l-25.85,20.32s16-96.65,31.4-122.51c16.62,40.63,27.7,122.51,27.7,122.51l-22.78-20.32v83.73Z"/><path class="cls-4" d="M621.05,1533v-83.72l-25.85,20.31s16-96.65,31.39-122.51c16.62,40.64,27.71,122.51,27.71,122.51l-22.78-20.31V1533Z"/><path class="cls-4" d="M811.89,1533v-83.72L786,1469.54s16-96.65,31.39-122.51c16.62,40.64,27.71,122.51,27.71,122.51l-22.78-20.31V1533Z"/><path class="cls-4" d="M1002.11,1444.92v-83.73l-25.85,20.32s16-96.65,31.4-122.51c16.62,40.63,27.7,122.51,27.7,122.51l-22.78-20.32v83.73Z"/><polygon class="cls-5" points="284.31 1042.92 460.38 1125.41 395.12 1241.15 201.82 1152.5 312.63 1130.34 284.31 1042.92"/><polygon class="cls-5" points="1157.25 1042.92 981.18 1125.41 1046.44 1241.15 1239.74 1152.5 1128.93 1130.34 1157.25 1042.92"/><path class="cls-5" d="M419.75,1049.08s293,163.75,604.53,2.46c34.47,93.57,49.25,126.82,49.25,126.82s-315.2,198.22-708,2.46C395.12,1108.18,419.75,1049.08,419.75,1049.08Z"/><path class="cls-6" d="M419.75,1049.08s293,163.75,604.53,2.46c34.47,93.57,49.25,126.82,49.25,126.82s-315.2,198.22-708,2.46C395.12,1108.18,419.75,1049.08,419.75,1049.08Z"/><path class="cls-7" d="M511.92,1162.16l-7.81,24,16.77,5.45c6.52,2.12,10.73,3.29,12.6,3.49a11.86,11.86,0,0,0,7.75-1.45,11.64,11.64,0,0,0,5-6.81,12.45,12.45,0,0,0,.27-7.51,11.62,11.62,0,0,0-4.33-5.94q-3.29-2.49-15.65-6.51Zm11.55-35.56-6.71,20.66,11.85,3.85q10.56,3.44,13.23,4a12.54,12.54,0,0,0,8.34-.82,9.92,9.92,0,0,0,4.92-6.12,10.24,10.24,0,0,0-.11-7.47q-1.44-3.35-5.79-5.35-2.58-1.18-15.35-5.33Zm-13.32-20.79L546,1117.46a108.76,108.76,0,0,1,15.59,6,24.51,24.51,0,0,1,8.17,6.73,24.12,24.12,0,0,1,4.45,9.71,21.21,21.21,0,0,1-.64,11.35,22.33,22.33,0,0,1-18.87,15.32q7.39,5,9.91,12.23a22.86,22.86,0,0,1,0,15,28.15,28.15,0,0,1-6.72,11,25.14,25.14,0,0,1-10.78,6.73,26.85,26.85,0,0,1-13.52.32q-4.7-1-22-6.49L481,1195.45Z"/><path class="cls-7" d="M636.51,1196.34l-6.21-36.75-19.14,31.82Zm27.11,43.35-20.18-3.92-3.9-22.62-37.12-7.22-11.78,19.57-19.82-3.85,53.93-85.54,19.79,3.85Z"/><path class="cls-7" d="M705.51,1183.91h14.08q13.7,0,17.1-1.16a10.26,10.26,0,0,0,5.34-4,12.35,12.35,0,0,0,1.93-7.08,11.35,11.35,0,0,0-2.54-7.7,11.63,11.63,0,0,0-7.17-3.7c-1.55-.22-6.17-.33-13.89-.33H705.51Zm-19.09,54.37V1144h40.09q15.12,0,22,2.54a21.64,21.64,0,0,1,11,9,27.05,27.05,0,0,1,4.12,14.85q0,10.6-6.21,17.52t-18.59,8.71a44,44,0,0,1,10.15,7.91q4,4.31,10.78,15.3l11.51,18.39H748.46l-13.66-20.57q-7.35-11-10.06-13.82A14.65,14.65,0,0,0,719,1200q-3-1.07-9.62-1.06h-3.87v39.36Z"/><path class="cls-7" d="M873,1132.45l18.25-5.59,14.94,48.85q3.55,11.64,5.27,14.87a15.32,15.32,0,0,0,8.23,7.21q5.39,2,12.93-.29t10.6-6.7a13.15,13.15,0,0,0,2.31-9.22,107.73,107.73,0,0,0-3.9-15.56l-15.25-49.89,18.26-5.59,14.49,47.4q5,16.26,5.55,23.41a26.62,26.62,0,0,1-2,13,28.56,28.56,0,0,1-8.32,10.59q-5.77,4.77-16.44,8-12.87,3.94-20.43,3a29.2,29.2,0,0,1-12.89-4.55,26,26,0,0,1-8.14-8.44q-4.14-7.21-8.78-22.36Z"/><path class="cls-7" d="M805.63,1181.49l13.9-2.2q13.53-2.14,16.71-3.82a10.23,10.23,0,0,0,4.64-4.78,12.3,12.3,0,0,0,.8-7.3,11.31,11.31,0,0,0-3.71-7.2,11.64,11.64,0,0,0-7.66-2.54q-2.34,0-13.77,1.85l-14.66,2.33Zm-10.35,56.69-14.75-93.1,39.59-6.27q14.94-2.37,22.11-.93a21.72,21.72,0,0,1,12.24,7.2,27.12,27.12,0,0,1,6.39,14q1.67,10.47-3.39,18.27t-17,11.51a44.44,44.44,0,0,1,11.25,6.23q4.62,3.63,13,13.43L879,1224.92l-22.48,3.55-16.69-18.18q-9-9.68-12.11-12.07a14.59,14.59,0,0,0-6.28-3q-3.16-.57-9.66.46l-3.83.6,6.16,38.88Z"/><circle class="cls-8" cx="718.93" cy="610.23" r="265.94"/><circle class="cls-9" cx="718.93" cy="610.23" r="265.94"/><path class="cls-10" d="M472.69,618.77H965.18c-4.71,133.4-110.25,237.7-246.25,237.7S477.4,752.17,472.69,618.77Z"/><path class="cls-10" d="M546.56,584.91s89.27-62.18,105.89-75.11c-6.77,16.62-32,56-82.5,91.11A158,158,0,0,1,546.56,584.91ZM870.37,596S887,580.6,895.62,569.52c.61,12.93-17.24,33.86-17.24,33.86Zm-392.14-2.46S606.89,493.18,626.59,480.25s24-14.16,42.48,1.85,108.35,112,134.82,121.28c25.24-25.24,62.79-56,68.33-62.18s16-24,44.33,4.31A538.24,538.24,0,0,1,964,599.68l-1.24,19.7-487.56-1.23Z"/><path class="cls-11" d="M473.92,620.61s38.17-32,50.48-37.55S541,580,554.57,589.22s33.24,24.62,33.24,24.62,3.69-32,12.31-35.09,12.31-2.46,17.24,4.31,32,41.25,48,22.78,13.54-27.09,26.47-15.39,12.31,23.39,33.24,16,31.4,0,31.4,0,3.69-3.07,25.85,4.31,28.32,5.54,28.32,5.54,2.46-1.84,13.54-14.16,22.17,8,22.17,8,4.92-21.55,14.15-20.32,27.09,19.09,27.09,19.09,9.24-25.86,29.55-12.93,34.47,12.93,41.86,4.31c4.31,6.15,6.16,20.93,6.16,20.93Z"/><circle class="cls-9" cx="718.93" cy="610.23" r="246.24"/><polygon class="cls-12" points="478.35 621.23 506.37 647.62 551.64 668.31 718.93 654.95 769.78 642.88 821.09 644.77 885.75 660.98 947.4 644.77 955.59 644.77 959.47 619.38 478.35 618.16 478.35 621.23"/><path class="cls-13" d="M497.31,639.7s31.4,20.31,47.41,12.92S588.42,628,588.42,628s3.08,38.17,24,25.24,40.63-29.55,53-17.24,21.54,16.62,34.47,4.31c12.93-10.46,18.47-6.15,28.93-3.69s13.55,0,13.55,0,14.77-1.23,17.23-1.85,17.86.62,17.86.62l34.47-11.08,17.85,18.47L847,635.39s9.85,18.47,17.24,14.16,19.08-12.93,19.08-12.93,2.47-4.31,15.39,3.08,14.16,7.38,24.63.61,17.85-12.93,26.47-7.38,3.08,25.85-4.93,40-38.78,40.63-64.64,31.4-100.34-53.56-100.34-53.56-77.57,69-96.65,77S633.37,745,602,721.57s-62.8-38.16-76.34-51.09S497.31,639.7,497.31,639.7Z"/></g></g></svg>